<svg width="32" height="32" viewBox="0 0 32 32" fill="none" xmlns="http://www.w3.org/2000/svg">
<g clip-path="url(#clip0_639_1741)">
<path d="M31.2919 8.23869L31.3319 8.50002C30.9452 7.12802 29.9012 6.06935 28.5746 5.68402L28.5466 5.67735C26.0519 5.00002 16.0132 5.00002 16.0132 5.00002C16.0132 5.00002 5.9999 4.98668 3.4799 5.67735C2.1279 6.06935 1.08257 7.12802 0.702571 8.47202L0.695904 8.50002C-0.236096 13.368 -0.242763 19.2174 0.737237 24.4294L0.695904 24.1654C1.08257 25.5374 2.12657 26.596 3.45324 26.9814L3.48124 26.988C5.97324 27.6667 16.0146 27.6667 16.0146 27.6667C16.0146 27.6667 26.0266 27.6667 28.5479 26.988C29.9012 26.596 30.9466 25.5374 31.3266 24.1934L31.3332 24.1654C31.7572 21.9014 31.9999 19.296 31.9999 16.6347C31.9999 16.5374 31.9999 16.4387 31.9986 16.34C31.9999 16.2494 31.9999 16.1414 31.9999 16.0334C31.9999 13.3707 31.7572 10.7654 31.2919 8.23869ZM12.8106 21.2014V11.4774L21.1652 16.3467L12.8106 21.2014Z" fill="#31352B"/>
</g>
<defs>
<clipPath id="clip0_639_1741">
<rect width="32" height="32" fill="white"/>
</clipPath>
</defs>
</svg>
